<svg version="1.1" id="Layer_1" xmlns="http://www.w3.org/2000/svg" xmlns:xlink="http://www.w3.org/1999/xlink" x="0px" y="0px"
	 width="113px" height="113px" viewBox="0 0 113 113" enable-background="new 0 0 113 113" xml:space="preserve">
<path d="M103.779,56.799c-4.762-3.612-6.916-4.128-26.418-9.804c-9.977-2.709-16.254-5.573-16.254-13.829
	c0-9.288,8.318-15.067,19.656-15.067c8.049,0,16.668,2.58,17.234,14.189h11.791c-0.227-3.87-0.453-10.19-4.988-15.867
	c-6.576-8.126-17.574-9.159-23.018-9.159c-15.42,0-32.207,8.606-32.207,27.569v40.878c0,2.1,0.001,4.466,0,7.308
	c-0.909,8.277-8.837,13.405-19.453,13.486c-8.049,0.061-16.687-2.454-17.342-14.059l-11.791,0.09
	c0.256,3.868,0.53,10.187,5.108,15.828c6.638,8.076,17.644,9.025,23.086,8.984c9.987-0.076,20.515-3.772,26.658-11.516l0.083,0.128
	c6.764,7.636,17.76,9.678,23.491,9.678c20.977,0,32.525-13.752,32.525-30.264C111.943,71.505,111.376,62.475,103.779,56.799z
	 M80.759,94.5c-18.822,0-19.426-13.216-19.652-19.667H61.01l-0.468-21.035c4.061,2.585,9.677,4.155,20.788,7.258
	c11.451,3.225,18.822,5.289,18.822,15.738C100.152,81.438,97.767,94.5,80.759,94.5z"/>
</svg>
