<?xml version="1.0" encoding="utf-8"?>
<!-- Generator: Adobe Illustrator 16.0.0, SVG Export Plug-In . SVG Version: 6.00 Build 0)  -->
<!DOCTYPE svg PUBLIC "-//W3C//DTD SVG 1.1//EN" "http://www.w3.org/Graphics/SVG/1.1/DTD/svg11.dtd">
<svg version="1.1" id="Layer_1" xmlns="http://www.w3.org/2000/svg" xmlns:xlink="http://www.w3.org/1999/xlink" x="0px" y="0px"
	 width="128px" height="128px" viewBox="0 0 128 128" enable-background="new 0 0 128 128" xml:space="preserve">
<g>
	<g>
		
			<rect x="4.178" y="86.942" transform="matrix(-0.0074 1 -1 -0.0074 96.1217 83.424)" fill="#FFFFFF" width="4.955" height="4.954"/>
		
			<rect x="4.953" y="85.827" transform="matrix(0.0227 -0.9997 0.9997 0.0227 -81.0179 93.6975)" fill="#FEFEFE" width="4.925" height="4.923"/>
		
			<rect x="5.74" y="84.767" transform="matrix(0.0381 -0.9993 0.9993 0.0381 -79.2733 92.076)" fill="#FDFDFD" width="4.898" height="4.895"/>
		
			<rect x="6.537" y="83.758" transform="matrix(0.054 -0.9985 0.9985 0.054 -77.5791 90.4938)" fill="#FCFCFC" width="4.87" height="4.868"/>
		
			<rect x="7.341" y="82.801" transform="matrix(0.0707 -0.9975 0.9975 0.0707 -75.9358 88.9382)" fill="#FBFBFB" width="4.844" height="4.842"/>
		
			<rect x="8.151" y="81.895" transform="matrix(0.0878 -0.9961 0.9961 0.0878 -74.3442 87.417)" fill="#FAFAFA" width="4.819" height="4.816"/>
		
			<rect x="8.967" y="81.036" transform="matrix(0.1057 -0.9944 0.9944 0.1057 -72.801 85.9126)" fill="#F9F9F9" width="4.794" height="4.792"/>
		
			<rect x="9.789" y="80.227" transform="matrix(0.124 -0.9923 0.9923 0.124 -71.3085 84.4457)" fill="#F8F8F8" width="4.771" height="4.769"/>
		
			<rect x="10.616" y="79.465" transform="matrix(0.1426 -0.9898 0.9898 0.1426 -69.8644 83.0208)" fill="#F7F7F7" width="4.748" height="4.746"/>
		
			<rect x="11.445" y="78.749" transform="matrix(0.162 -0.9868 0.9868 0.162 -68.4683 81.5986)" fill="#F6F6F6" width="4.726" height="4.725"/>
		
			<rect x="12.277" y="78.079" transform="matrix(0.1818 -0.9833 0.9833 0.1818 -67.1201 80.1937)" fill="#F5F5F5" width="4.707" height="4.704"/>
		
			<rect x="13.114" y="77.456" transform="matrix(0.2022 -0.9793 0.9793 0.2022 -65.8187 78.799)" fill="#F4F4F4" width="4.685" height="4.684"/>
		
			<rect x="13.948" y="76.875" transform="matrix(0.2227 -0.9749 0.9749 0.2227 -64.5625 77.4422)" fill="#F3F3F3" width="4.668" height="4.666"/>
		
			<rect x="14.784" y="76.336" transform="matrix(0.2436 -0.9699 0.9699 0.2436 -63.349 76.0906)" fill="#F2F2F2" width="4.65" height="4.648"/>
		
			<rect x="15.62" y="75.841" transform="matrix(0.2648 -0.9643 0.9643 0.2648 -62.18 74.7592)" fill="#F1F1F1" width="4.634" height="4.632"/>
		
			<rect x="16.454" y="75.386" transform="matrix(0.2863 -0.9582 0.9582 0.2863 -61.0508 73.4316)" fill="#F0F0F0" width="4.619" height="4.617"/>
		
			<rect x="17.285" y="74.971" transform="matrix(0.3077 -0.9515 0.9515 0.3077 -59.9623 72.1317)" fill="#EFEFEF" width="4.606" height="4.603"/>
		
			<rect x="18.115" y="74.597" transform="matrix(0.3295 -0.9442 0.9442 0.3295 -58.912 70.8273)" fill="#EEEEEE" width="4.592" height="4.59"/>
		
			<rect x="18.942" y="74.261" transform="matrix(0.3513 -0.9363 0.9363 0.3513 -57.8982 69.5391)" fill="#EDEDED" width="4.579" height="4.577"/>
		
			<rect x="19.762" y="73.961" transform="matrix(0.3728 -0.9279 0.9279 0.3728 -56.921 68.2775)" fill="#ECECEC" width="4.57" height="4.568"/>
		
			<rect x="20.578" y="73.699" transform="matrix(0.3946 -0.9188 0.9188 0.3946 -55.9748 66.9976)" fill="#EBEBEB" width="4.56" height="4.558"/>
		
			<rect x="21.388" y="73.475" transform="matrix(0.4164 -0.9092 0.9092 0.4164 -55.0598 65.7224)" fill="#EAEAEA" width="4.55" height="4.549"/>
		
			<rect x="22.191" y="73.284" transform="matrix(0.4379 -0.899 0.899 0.4379 -54.1751 64.4613)" fill="#E9E9E9" width="4.543" height="4.541"/>
		
			<rect x="22.986" y="73.127" transform="matrix(0.4591 -0.8884 0.8884 0.4591 -53.3199 63.2206)" fill="#E8E8E8" width="4.538" height="4.535"/>
		
			<rect x="23.773" y="73.005" transform="matrix(0.4804 -0.877 0.877 0.4804 -52.485 61.9446)" fill="#E7E7E7" width="4.532" height="4.529"/>
		
			<rect x="24.551" y="72.913" transform="matrix(0.5015 -0.8652 0.8652 0.5015 -51.6721 60.6725)" fill="#E6E6E6" width="4.526" height="4.526"/>
		
			<rect x="25.317" y="72.854" transform="matrix(0.5221 -0.8529 0.8529 0.5221 -50.8849 59.4236)" fill="#E5E5E5" width="4.525" height="4.523"/>
		
			<rect x="26.074" y="72.826" transform="matrix(0.5427 -0.8399 0.8399 0.5427 -50.1087 58.1356)" fill="#E4E4E4" width="4.523" height="4.521"/>
		
			<rect x="26.819" y="72.827" transform="matrix(0.5627 -0.8266 0.8266 0.5627 -49.3538 56.8702)" fill="#E4E4E4" width="4.522" height="4.52"/>
		
			<rect x="27.551" y="72.857" transform="matrix(0.5826 -0.8128 0.8128 0.5826 -48.6089 55.5855)" fill="#E3E3E3" width="4.523" height="4.521"/>
		
			<rect x="28.269" y="72.914" transform="matrix(0.6021 -0.7984 0.7984 0.6021 -47.8721 54.2862)" fill="#E2E2E2" width="4.526" height="4.523"/>
		
			<rect x="28.975" y="72.999" transform="matrix(0.6216 -0.7833 0.7833 0.6216 -47.1349 52.9506)" fill="#E1E1E1" width="4.528" height="4.526"/>
		
			<rect x="29.664" y="73.111" transform="matrix(0.6406 -0.7679 0.7679 0.6406 -46.4047 51.612)" fill="#E0E0E0" width="4.532" height="4.53"/>
		
			<rect x="30.339" y="73.248" transform="matrix(0.6595 -0.7517 0.7517 0.6595 -45.6634 50.2262)" fill="#DFDFDF" width="4.536" height="4.535"/>
		
			<rect x="30.996" y="73.409" transform="matrix(0.6779 -0.7351 0.7351 0.6779 -44.9192 48.8291)" fill="#DEDEDE" width="4.543" height="4.542"/>
		
			<rect x="31.637" y="73.594" transform="matrix(0.6965 -0.7176 0.7176 0.6965 -44.149 47.3643)" fill="#DDDDDD" width="4.551" height="4.549"/>
		
			<rect x="32.26" y="73.802" transform="matrix(0.7148 -0.6993 0.6993 0.7148 -43.3532 45.8486)" fill="#DCDCDC" width="4.558" height="4.556"/>
		
			<rect x="32.863" y="74.03" transform="matrix(0.7326 -0.6807 0.6807 0.7326 -42.545 44.3291)" fill="#DBDBDB" width="4.568" height="4.568"/>
		
			<rect x="33.446" y="74.28" transform="matrix(0.7504 -0.661 0.661 0.7504 -41.693 42.7368)" fill="#DADADA" width="4.58" height="4.579"/>
		
			<rect x="34.01" y="74.552" transform="matrix(0.7682 -0.6402 0.6402 0.7682 -40.7811 41.0539)" fill="#D9D9D9" width="4.592" height="4.589"/>
		
			<rect x="34.551" y="74.841" transform="matrix(0.7856 -0.6187 0.6187 0.7856 -39.829 39.3419)" fill="#D8D8D8" width="4.606" height="4.603"/>
		
			<rect x="35.072" y="75.148" transform="matrix(0.8031 -0.5958 0.5958 0.8031 -38.7904 37.522)" fill="#D7D7D7" width="4.619" height="4.618"/>
		
			<rect x="35.569" y="75.474" transform="matrix(0.8206 -0.5716 0.5716 0.8206 -37.6633 35.6127)" fill="#D6D6D6" width="4.634" height="4.632"/>
		
			<rect x="36.043" y="75.816" transform="matrix(0.8375 -0.5464 0.5464 0.8375 -36.464 33.6632)" fill="#D5D5D5" width="4.65" height="4.649"/>
		
			<rect x="36.492" y="76.173" transform="matrix(0.8546 -0.5193 0.5193 0.8546 -35.1258 31.5818)" fill="#D4D4D4" width="4.667" height="4.668"/>
		
			<rect x="36.916" y="76.547" transform="matrix(0.8714 -0.4906 0.4906 0.8714 -33.6514 29.4035)" fill="#D3D3D3" width="4.686" height="4.684"/>
		
			<rect x="37.314" y="76.933" transform="matrix(0.8879 -0.46 0.46 0.8879 -32.0226 27.129)" fill="#D2D2D2" width="4.705" height="4.704"/>
		
			<rect x="37.685" y="77.333" transform="matrix(0.9041 -0.4274 0.4274 0.9041 -30.2191 24.7611)" fill="#D1D1D1" width="4.725" height="4.724"/>
		
			<rect x="38.028" y="77.744" transform="matrix(0.9197 -0.3926 0.3926 0.9197 -28.2088 22.2925)" fill="#D0D0D0" width="4.746" height="4.746"/>
		
			<rect x="38.343" y="78.168" transform="matrix(0.9344 -0.3562 0.3562 0.9344 -26.0212 19.7906)" fill="#CFCFCF" width="4.77" height="4.768"/>
		
			<rect x="38.629" y="78.601" transform="matrix(0.9487 -0.3163 0.3163 0.9487 -23.5103 17.1319)" fill="#CECECE" width="4.792" height="4.792"/>
		
			<rect x="38.884" y="79.044" transform="matrix(0.9615 -0.2748 0.2748 0.9615 -20.7953 14.485)" fill="#CDCDCD" width="4.818" height="4.817"/>
		
			<rect x="39.109" y="79.497" transform="matrix(0.9732 -0.2299 0.2299 0.9732 -17.72 11.7418)" fill="#CCCCCC" width="4.843" height="4.841"/>
		
			<rect x="39.303" y="79.955" transform="matrix(0.9831 -0.1829 0.1829 0.9831 -14.3656 9.024)" fill="#CBCBCB" width="4.869" height="4.87"/>
		
			<rect x="39.464" y="80.423" transform="matrix(0.9911 -0.1332 0.1332 0.9911 -10.6656 6.3216)" fill="#CACACA" width="4.897" height="4.895"/>
		
			<rect x="39.591" y="80.896" transform="matrix(0.9967 -0.0809 0.0809 0.9967 -6.6061 3.6756)" fill="#C9C9C9" width="4.925" height="4.923"/>
		
			<rect x="39.685" y="81.373" transform="matrix(-0.9996 0.0272 -0.0272 -0.9996 86.5894 166.5233)" fill="#C8C8C8" width="4.954" height="4.955"/>
	</g>
	<g>
		
			<rect x="119.451" y="37.98" transform="matrix(-0.8488 0.5288 -0.5288 -0.8488 246.8081 10.3234)" opacity="0.2" fill="#747475" width="4.953" height="4.954"/>
		
			<rect x="118.645" y="37.543" transform="matrix(0.8275 -0.5614 0.5614 0.8275 -1.572 74.8977)" opacity="0.2094" fill="#757576" width="4.929" height="4.929"/>
		
			<rect x="117.826" y="37.131" transform="matrix(0.805 -0.5933 0.5933 0.805 -0.0289 79.0781)" opacity="0.2188" fill="#767677" width="4.903" height="4.904"/>
		
			<rect x="116.994" y="36.743" transform="matrix(0.7811 -0.6244 0.6244 0.7811 1.6778 83.1516)" opacity="0.2282" fill="#777778" width="4.88" height="4.881"/>
		
			<rect x="116.152" y="36.38" transform="matrix(0.7565 -0.654 0.654 0.7565 3.497 87.008)" opacity="0.2376" fill="#787879" width="4.854" height="4.856"/>
		
			<rect x="115.297" y="36.041" transform="matrix(0.7306 -0.6829 0.6829 0.7306 5.4569 90.7438)" opacity="0.2471" fill="#79797A" width="4.832" height="4.832"/>
		
			<rect x="114.433" y="35.727" transform="matrix(0.7035 -0.7107 0.7107 0.7035 7.5389 94.3351)" opacity="0.2565" fill="#7A7A7B" width="4.808" height="4.809"/>
		
			<rect x="113.559" y="35.436" transform="matrix(0.6759 -0.737 0.737 0.6759 9.7003 97.7172)" opacity="0.2659" fill="#7B7B7C" width="4.787" height="4.788"/>
		
			<rect x="112.675" y="35.169" transform="matrix(0.6471 -0.7624 0.7624 0.6471 11.9777 100.9786)" opacity="0.2753" fill="#7C7C7D" width="4.765" height="4.766"/>
		
			<rect x="111.781" y="34.927" transform="matrix(0.6176 -0.7865 0.7865 0.6176 14.3131 104.0381)" opacity="0.2847" fill="#7D7D7E" width="4.743" height="4.744"/>
		
			<rect x="110.877" y="34.709" transform="matrix(0.5875 -0.8092 0.8092 0.5875 16.7109 106.9243)" opacity="0.2941" fill="#7E7E7F" width="4.722" height="4.723"/>
		
			<rect x="109.966" y="34.513" transform="matrix(0.5565 -0.8309 0.8309 0.5565 19.1853 109.6706)" opacity="0.3035" fill="#7F7F80" width="4.701" height="4.704"/>
		
			<rect x="109.045" y="34.342" transform="matrix(0.525 -0.8511 0.8511 0.525 21.6869 112.2263)" opacity="0.3129" fill="#808081" width="4.682" height="4.684"/>
		
			<rect x="108.115" y="34.196" transform="matrix(0.4932 -0.8699 0.8699 0.4932 24.1959 114.5891)" opacity="0.3224" fill="#818182" width="4.663" height="4.664"/>
		
			<rect x="107.178" y="34.072" transform="matrix(0.4605 -0.8876 0.8876 0.4605 26.7656 116.8302)" opacity="0.3318" fill="#828283" width="4.644" height="4.646"/>
		
			<rect x="106.233" y="33.972" transform="matrix(0.4277 -0.9039 0.9039 0.4277 29.3189 118.8807)" opacity="0.3412" fill="#838384" width="4.626" height="4.628"/>
		
			<rect x="105.281" y="33.895" transform="matrix(0.3948 -0.9188 0.9188 0.3948 31.854 120.7571)" opacity="0.3506" fill="#848485" width="4.609" height="4.611"/>
		
			<rect x="104.321" y="33.843" transform="matrix(0.3614 -0.9324 0.9324 0.3614 34.3928 122.4929)" opacity="0.36" fill="#858586" width="4.592" height="4.594"/>
		
			<rect x="103.355" y="33.813" transform="matrix(0.3276 -0.9448 0.9448 0.3276 36.9223 124.0852)" opacity="0.3694" fill="#868687" width="4.575" height="4.576"/>
		
			<rect x="102.383" y="33.807" transform="matrix(0.2941 -0.9558 0.9558 0.2941 39.3929 125.5098)" opacity="0.3788" fill="#878788" width="4.56" height="4.56"/>
		
			<rect x="101.404" y="33.823" transform="matrix(0.2598 -0.9657 0.9657 0.2598 41.8829 126.833)" opacity="0.3882" fill="#888889" width="4.544" height="4.545"/>
		
			<rect x="100.419" y="33.862" transform="matrix(0.2259 -0.9741 0.9741 0.2259 44.2919 127.9959)" opacity="0.3976" fill="#89898A" width="4.53" height="4.532"/>
		
			<rect x="99.428" y="33.926" transform="matrix(0.192 -0.9814 0.9814 0.192 46.6491 129.0311)" opacity="0.4071" fill="#8A8A8A" width="4.516" height="4.517"/>
		
			<rect x="98.432" y="34.012" transform="matrix(0.1583 -0.9874 0.9874 0.1583 48.9435 129.9402)" opacity="0.4165" fill="#8B8B8B" width="4.505" height="4.504"/>
		
			<rect x="97.433" y="34.121" transform="matrix(0.124 -0.9923 0.9923 0.124 51.2332 130.7668)" opacity="0.4259" fill="#8C8C8C" width="4.49" height="4.492"/>
		
			<rect x="96.428" y="34.252" transform="matrix(0.0907 -0.9959 0.9959 0.0907 53.3752 131.4419)" opacity="0.4353" fill="#8D8D8D" width="4.478" height="4.479"/>
		
			<rect x="95.418" y="34.407" transform="matrix(0.0571 -0.9984 0.9984 0.0571 55.4991 132.0431)" opacity="0.4447" fill="#8E8E8E" width="4.467" height="4.468"/>
		
			<rect x="94.405" y="34.584" transform="matrix(0.0237 -0.9997 0.9997 0.0237 57.5446 132.5477)" opacity="0.4541" fill="#8F8F8F" width="4.457" height="4.457"/>
		
			<rect x="93.388" y="34.784" transform="matrix(-0.0097 -1 1 -0.0097 59.5296 132.9718)" opacity="0.4635" fill="#909090" width="4.447" height="4.447"/>
		
			<rect x="92.368" y="35.007" transform="matrix(-0.0425 -0.9991 0.9991 -0.0425 61.4127 133.308)" opacity="0.4729" fill="#919191" width="4.437" height="4.438"/>
		
			<rect x="91.344" y="35.251" transform="matrix(-0.0752 -0.9972 0.9972 -0.0752 63.2343 133.5765)" opacity="0.4824" fill="#929292" width="4.429" height="4.43"/>
		
			<rect x="90.318" y="35.518" transform="matrix(-0.1076 -0.9942 0.9942 -0.1076 64.9735 133.7795)" opacity="0.4918" fill="#939393" width="4.421" height="4.422"/>
		
			<rect x="89.291" y="35.808" transform="matrix(-0.1392 -0.9903 0.9903 -0.1392 66.589 133.9133)" opacity="0.5012" fill="#949494" width="4.413" height="4.413"/>
		
			<rect x="88.26" y="36.12" transform="matrix(-0.1709 -0.9853 0.9853 -0.1709 68.1616 134.0046)" opacity="0.5106" fill="#959595" width="4.406" height="4.408"/>
		
			<rect x="87.228" y="36.454" transform="matrix(-0.2022 -0.9793 0.9793 -0.2022 69.6551 134.0519)" opacity="0.52" fill="#969696" width="4.399" height="4.402"/>
		
			<rect x="86.194" y="36.81" transform="matrix(-0.2329 -0.9725 0.9725 -0.2329 71.0398 134.053)" opacity="0.5294" fill="#979797" width="4.395" height="4.395"/>
		
			<rect x="85.16" y="37.189" transform="matrix(-0.263 -0.9648 0.9648 -0.263 72.3284 134.0215)" opacity="0.5388" fill="#989898" width="4.389" height="4.391"/>
		
			<rect x="84.124" y="37.589" transform="matrix(-0.2928 -0.9562 0.9562 -0.2928 73.5533 133.965)" opacity="0.5482" fill="#999999" width="4.386" height="4.386"/>
		
			<rect x="83.089" y="38.012" transform="matrix(-0.3218 -0.9468 0.9468 -0.3218 74.6609 133.8847)" opacity="0.5576" fill="#9A9A9A" width="4.382" height="4.383"/>
		
			<rect x="82.052" y="38.456" transform="matrix(-0.351 -0.9364 0.9364 -0.351 75.7503 133.7953)" opacity="0.5671" fill="#9B9B9B" width="4.379" height="4.382"/>
		
			<rect x="81.015" y="38.922" transform="matrix(-0.3795 -0.9252 0.9252 -0.3795 76.7398 133.6922)" opacity="0.5765" fill="#9C9C9C" width="4.378" height="4.378"/>
		
			<rect x="79.98" y="39.41" transform="matrix(-0.407 -0.9134 0.9134 -0.407 77.6186 133.5845)" opacity="0.5859" fill="#9D9D9D" width="4.376" height="4.377"/>
		
			<rect x="78.945" y="39.919" transform="matrix(-0.4345 -0.9007 0.9007 -0.4345 78.4641 133.4784)" opacity="0.5953" fill="#9E9E9E" width="4.376" height="4.377"/>
		
			<rect x="77.911" y="40.45" transform="matrix(-0.4614 -0.8872 0.8872 -0.4614 79.2235 133.3751)" opacity="0.6047" fill="#9E9E9F" width="4.375" height="4.376"/>
		
			<rect x="76.879" y="41.003" transform="matrix(-0.4874 -0.8732 0.8732 -0.4874 79.8868 133.2825)" opacity="0.6141" fill="#9F9FA0" width="4.376" height="4.378"/>
		
			<rect x="75.848" y="41.577" transform="matrix(-0.513 -0.8584 0.8584 -0.513 80.4994 133.2043)" opacity="0.6235" fill="#A0A0A1" width="4.377" height="4.379"/>
		
			<rect x="74.819" y="42.172" transform="matrix(-0.5378 -0.8431 0.8431 -0.5378 81.0256 133.1447)" opacity="0.6329" fill="#A1A1A2" width="4.38" height="4.38"/>
		
			<rect x="73.794" y="42.789" transform="matrix(-0.5621 -0.8271 0.8271 -0.5621 81.4935 133.1085)" opacity="0.6424" fill="#A2A2A3" width="4.382" height="4.382"/>
		
			<rect x="72.769" y="43.427" transform="matrix(-0.5861 -0.8102 0.8102 -0.5861 81.9338 133.0956)" opacity="0.6518" fill="#A3A3A4" width="4.387" height="4.387"/>
		
			<rect x="71.749" y="44.086" transform="matrix(-0.6093 -0.7929 0.7929 -0.6093 82.2996 133.1138)" opacity="0.6612" fill="#A4A4A5" width="4.39" height="4.391"/>
		
			<rect x="70.732" y="44.767" transform="matrix(-0.6314 -0.7754 0.7754 -0.6314 82.5629 133.1706)" opacity="0.6706" fill="#A5A5A6" width="4.395" height="4.395"/>
		
			<rect x="69.718" y="45.468" transform="matrix(-0.6536 -0.7568 0.7568 -0.6536 82.8484 133.2547)" opacity="0.68" fill="#A6A6A7" width="4.4" height="4.401"/>
		
			<rect x="68.708" y="46.19" transform="matrix(-0.6747 -0.7381 0.7381 -0.6747 83.038 133.3838)" opacity="0.6894" fill="#A7A7A8" width="4.407" height="4.407"/>
		
			<rect x="67.704" y="46.934" transform="matrix(-0.6951 -0.719 0.719 -0.6951 83.1721 133.5576)" opacity="0.6988" fill="#A8A8A9" width="4.413" height="4.412"/>
		
			<rect x="66.702" y="47.697" transform="matrix(-0.7151 -0.699 0.699 -0.7151 83.3068 133.769)" opacity="0.7082" fill="#A9A9AA" width="4.42" height="4.422"/>
		
			<rect x="65.706" y="48.483" transform="matrix(-0.7343 -0.6788 0.6788 -0.7343 83.3855 134.0293)" opacity="0.7176" fill="#AAAAAB" width="4.428" height="4.429"/>
		
			<rect x="64.716" y="49.288" transform="matrix(-0.7526 -0.6584 0.6584 -0.7526 83.3973 134.345)" opacity="0.7271" fill="#ABABAC" width="4.438" height="4.438"/>
		
			<rect x="63.73" y="50.114" transform="matrix(-0.7707 -0.6372 0.6372 -0.7707 83.4359 134.6994)" opacity="0.7365" fill="#ACACAD" width="4.446" height="4.448"/>
		
			<rect x="62.75" y="50.962" transform="matrix(-0.7879 -0.6158 0.6158 -0.7879 83.4257 135.1124)" opacity="0.7459" fill="#ADADAE" width="4.458" height="4.458"/>
		
			<rect x="61.778" y="51.829" transform="matrix(-0.8043 -0.5942 0.5942 -0.8043 83.371 135.5826)" opacity="0.7553" fill="#AEAEAF" width="4.467" height="4.468"/>
		
			<rect x="60.81" y="52.717" transform="matrix(-0.8203 -0.5719 0.5719 -0.8203 83.3372 136.0987)" opacity="0.7647" fill="#AFAFB0" width="4.479" height="4.48"/>
		
			<rect x="59.85" y="53.625" transform="matrix(-0.8355 -0.5495 0.5495 -0.8355 83.278 136.6719)" opacity="0.7741" fill="#B0B0B1" width="4.491" height="4.492"/>
		
			<rect x="58.898" y="54.554" transform="matrix(-0.8497 -0.5272 0.5272 -0.8497 83.1599 137.315)" opacity="0.7835" fill="#B1B1B2" width="4.505" height="4.504"/>
		
			<rect x="57.952" y="55.502" transform="matrix(-0.8637 -0.504 0.504 -0.8637 83.1065 137.9951)" opacity="0.7929" fill="#B2B2B3" width="4.517" height="4.518"/>
		
			<rect x="57.014" y="56.471" transform="matrix(-0.8766 -0.4812 0.4812 -0.8766 82.9778 138.7536)" opacity="0.8024" fill="#B3B3B3" width="4.531" height="4.532"/>
		
			<rect x="56.085" y="57.461" transform="matrix(-0.889 -0.4578 0.4578 -0.889 82.8915 139.5569)" opacity="0.8118" fill="#B4B4B4" width="4.545" height="4.546"/>
		
			<rect x="55.164" y="58.47" transform="matrix(-0.9009 -0.434 0.434 -0.9009 82.8287 140.4136)" opacity="0.8212" fill="#B5B5B5" width="4.561" height="4.562"/>
		
			<rect x="54.252" y="59.499" transform="matrix(-0.9119 -0.4104 0.4104 -0.9119 82.7414 141.3356)" opacity="0.8306" fill="#B6B6B6" width="4.576" height="4.577"/>
		
			<rect x="53.348" y="60.548" transform="matrix(-0.9223 -0.3866 0.3866 -0.9223 82.67 142.3148)" opacity="0.84" fill="#B7B7B7" width="4.593" height="4.594"/>
		
			<rect x="52.454" y="61.618" transform="matrix(-0.9321 -0.3623 0.3623 -0.9321 82.637 143.3424)" opacity="0.8494" fill="#B8B8B8" width="4.609" height="4.61"/>
		
			<rect x="51.57" y="62.706" transform="matrix(-0.941 -0.3383 0.3383 -0.941 82.5904 144.4361)" opacity="0.8588" fill="#B9B9B9" width="4.627" height="4.628"/>
		
			<rect x="50.696" y="63.815" transform="matrix(-0.9493 -0.3143 0.3143 -0.9493 82.5631 145.5867)" opacity="0.8682" fill="#BABABA" width="4.645" height="4.645"/>
		
			<rect x="49.831" y="64.944" transform="matrix(-0.957 -0.2901 0.2901 -0.957 82.5635 146.7916)" opacity="0.8776" fill="#BBBBBB" width="4.665" height="4.663"/>
		
			<rect x="48.978" y="66.092" transform="matrix(-0.9642 -0.2653 0.2653 -0.9642 82.6485 148.0288)" opacity="0.8871" fill="#BCBCBC" width="4.683" height="4.683"/>
		
			<rect x="48.136" y="67.259" transform="matrix(-0.9706 -0.2409 0.2409 -0.9706 82.7192 149.3331)" opacity="0.8965" fill="#BDBDBD" width="4.702" height="4.703"/>
		
			<rect x="47.305" y="68.446" transform="matrix(-0.9762 -0.2167 0.2167 -0.9762 82.8115 150.6944)" opacity="0.9059" fill="#BEBEBE" width="4.724" height="4.723"/>
		
			<rect x="46.486" y="69.652" transform="matrix(-0.9813 -0.1923 0.1923 -0.9813 82.9552 152.099)" opacity="0.9153" fill="#BFBFBF" width="4.744" height="4.744"/>
		
			<rect x="45.678" y="70.878" transform="matrix(-0.9858 -0.168 0.168 -0.9858 83.1272 153.5557)" opacity="0.9247" fill="#C0C0C0" width="4.766" height="4.765"/>
		
			<rect x="44.883" y="72.123" transform="matrix(-0.9897 -0.1432 0.1432 -0.9897 83.393 155.0359)" opacity="0.9341" fill="#C1C1C1" width="4.787" height="4.787"/>
		
			<rect x="44.1" y="73.388" transform="matrix(-0.9929 -0.119 0.119 -0.9929 83.6617 156.5804)" opacity="0.9435" fill="#C2C2C2" width="4.81" height="4.809"/>
		
			<rect x="43.33" y="74.671" transform="matrix(-0.9955 -0.0946 0.0946 -0.9955 83.9972 158.155)" opacity="0.9529" fill="#C3C3C3" width="4.832" height="4.832"/>
		
			<rect x="42.573" y="75.974" transform="matrix(-0.9975 -0.0704 0.0704 -0.9975 84.3732 159.7756)" opacity="0.9624" fill="#C4C4C4" width="4.856" height="4.856"/>
		
			<rect x="41.83" y="77.295" transform="matrix(-0.9989 -0.046 0.046 -0.9989 84.8233 161.4237)" opacity="0.9718" fill="#C5C5C5" width="4.88" height="4.88"/>
		
			<rect x="41.101" y="78.635" transform="matrix(-0.9998 -0.0219 0.0219 -0.9998 85.32 163.1103)" opacity="0.9812" fill="#C6C6C6" width="4.904" height="4.905"/>
		
			<rect x="40.386" y="79.995" transform="matrix(-1 0.002 -0.002 -1 85.8645 164.8349)" opacity="0.9906" fill="#C7C7C7" width="4.929" height="4.93"/>
		
			<rect x="39.685" y="81.373" transform="matrix(0.0258 0.9997 -0.9997 0.0258 124.8961 39.5376)" fill="#C8C8C8" width="4.955" height="4.955"/>
	</g>
</g>
</svg>
